<svg width="18" height="17" viewBox="0 0 18 17" fill="none" xmlns="http://www.w3.org/2000/svg">
<path d="M3.375 4.51562H14.625" stroke="black" stroke-miterlimit="10" stroke-linecap="round" stroke-linejoin="round"/>
<path d="M6.1875 4.51562V3.32031C6.1875 1.8533 7.44669 0.664062 9 0.664062C10.5533 0.664062 11.8125 1.8533 11.8125 3.32031V4.51562" stroke="black" stroke-miterlimit="10" stroke-linecap="round" stroke-linejoin="round"/>
<path d="M11.8125 7.17188C11.8125 8.63889 10.5533 9.82812 9 9.82812C7.44669 9.82812 6.1875 8.63889 6.1875 7.17188" stroke="black" stroke-miterlimit="10" stroke-linecap="round" stroke-linejoin="round"/>
<path d="M14.625 4.51562L16.0201 14.8401C16.0275 14.895 16.0312 14.951 16.0312 15.0078C16.0312 15.7413 15.4016 16.3359 14.625 16.3359H3.375C2.59836 16.3359 1.96875 15.7413 1.96875 15.0078C1.96875 14.951 1.97251 14.895 1.97986 14.8401L3.375 4.51562" stroke="black" stroke-miterlimit="10" stroke-linecap="round" stroke-linejoin="round"/>
</svg>
